HIERARCHY
ROOT Hips
{
  OFFSET 377.763 88.2609 174.383
  CHANNELS 6 Xposition Yposition Zposition Zrotation Xrotation Yrotation
  JOINT RightUpLeg
  {
    OFFSET -9.30536 -1.56319 -0.0308412
    CHANNELS 3 Zrotation Xrotation Yrotation
    JOINT RightLeg
    {
      OFFSET -0.0509473 -41.8867 0.0408735
      CHANNELS 3 Zrotation Xrotation Yrotation
      JOINT RightFoot
      {
        OFFSET -0.135761 -42.7852 -0.897951
        CHANNELS 3 Zrotation Xrotation Yrotation
        End Site
        {
          OFFSET 0 -7.69 17.5
        }
      }
    }
  }
  JOINT LeftUpLeg
  {
    OFFSET 9.25165 -1.62789 -0.00729124
    CHANNELS 3 Zrotation Xrotation Yrotation
    JOINT LeftLeg
    {
      OFFSET 0.024936 -41.8804 0.00207043
      CHANNELS 3 Zrotation Xrotation Yrotation
      JOINT LeftFoot
      {
        OFFSET 0.245063 -40.7505 0.529473
        CHANNELS 3 Zrotation Xrotation Yrotation
        End Site
        {
          OFFSET 0 -7.69 17.5
        }
      }
    }
  }
  JOINT Spine
  {
    OFFSET 0.0381636 14.2969 0.0214663
    CHANNELS 3 Zrotation Xrotation Yrotation
    JOINT Spine1
    {
      OFFSET 0.0273681 9.71499 0.0100001
      CHANNELS 3 Zrotation Xrotation Yrotation
      JOINT Spine2
      {
        OFFSET 0.029022 10.1215 -0.000399631
        CHANNELS 3 Zrotation Xrotation Yrotation
        JOINT Spine3
        {
          OFFSET 0.0290531 9.71322 0.0107928
          CHANNELS 3 Zrotation Xrotation Yrotation
          JOINT Neck
          {
            OFFSET 0.0830829 10.3832 0.0498053
            CHANNELS 3 Zrotation Xrotation Yrotation
            JOINT Head
            {
              OFFSET 0.0700972 9.47827 0.0499309
              CHANNELS 3 Zrotation Xrotation Yrotation
              End Site
              {
                OFFSET 0 15.95 0
              }
            }
          }
          JOINT RightShoulder
          {
            OFFSET -3.16088 6.93633 0.0290789
            CHANNELS 3 Zrotation Xrotation Yrotation
            JOINT RightArm
            {
              OFFSET -12.7509 0.028765 0.0682708
              CHANNELS 3 Zrotation Xrotation Yrotation
              JOINT RightForeArm
              {
                OFFSET -26.5067 -0.0728143 0.13822
                CHANNELS 3 Zrotation Xrotation Yrotation
                JOINT RightHand
                {
                  OFFSET -25.9897 -0.0664148 0.00141744
                  CHANNELS 3 Zrotation Xrotation Yrotation
                  JOINT RightHandThumb1
                  {
                    OFFSET -2.48905 0.190105 3.12053
                    CHANNELS 3 Zrotation Xrotation Yrotation
                    JOINT RightHandThumb2
                    {
                      OFFSET -3.68274 0 0
                      CHANNELS 3 Zrotation Xrotation Yrotation
                      JOINT RightHandThumb3
                      {
                        OFFSET -2.55832 0 0
                        CHANNELS 3 Zrotation Xrotation Yrotation
                        End Site
                        {
                          OFFSET -2.194 0 0
                        }
                      }
                    }
                  }
                  JOINT RightInHandIndex
                  {
                    OFFSET -3.22368 0.508421 1.97842
                    CHANNELS 3 Zrotation Xrotation Yrotation
                    JOINT RightHandIndex1
                    {
                      OFFSET -5.21684 -0.091368 0.999158
                      CHANNELS 3 Zrotation Xrotation Yrotation
                      JOINT RightHandIndex2
                      {
                        OFFSET -3.61937 0 0
                        CHANNELS 3 Zrotation Xrotation Yrotation
                        JOINT RightHandIndex3
                        {
                          OFFSET -2.0521 0 0
                          CHANNELS 3 Zrotation Xrotation Yrotation
                          End Site
                          {
                            OFFSET -1.805 0 0
                          }
                        }
                      }
                    }
                  }
                  JOINT RightInHandMiddle
                  {
                    OFFSET -3.38211 0.517263 0.756737
                    CHANNELS 3 Zrotation Xrotation Yrotation
                    JOINT RightHandMiddle1
                    {
                      OFFSET -5.17411 -0.084 0.313895
                      CHANNELS 3 Zrotation Xrotation Yrotation
                      JOINT RightHandMiddle2
                      {
                        OFFSET -3.94947 0 0
                        CHANNELS 3 Zrotation Xrotation Yrotation
                        JOINT RightHandMiddle3
                        {
                          OFFSET -2.47579 0 0
                          CHANNELS 3 Zrotation Xrotation Yrotation
                          End Site
                          {
                            OFFSET -1.975 0 0
                          }
                        }
                      }
                    }
                  }
                  JOINT RightInHandRing
                  {
                    OFFSET -3.36516 0.537895 -0.128947
                    CHANNELS 3 Zrotation Xrotation Yrotation
                    JOINT RightHandRing1
                    {
                      OFFSET -4.63474 -0.022105 -0.478947
                      CHANNELS 3 Zrotation Xrotation Yrotation
                      JOINT RightHandRing2
                      {
                        OFFSET -3.44238 0 0
                        CHANNELS 3 Zrotation Xrotation Yrotation
                        JOINT RightHandRing3
                        {
                          OFFSET -2.3881 0 0
                          CHANNELS 3 Zrotation Xrotation Yrotation
                          End Site
                          {
                            OFFSET -1.857 0 0
                          }
                        }
                      }
                    }
                  }
                  JOINT RightInHandPinky
                  {
                    OFFSET -3.16105 0.469368 -1.20179
                    CHANNELS 3 Zrotation Xrotation Yrotation
                    JOINT RightHandPinky1
                    {
                      OFFSET -4.14105 -0.022105 -1.09053
                      CHANNELS 3 Zrotation Xrotation Yrotation
                      JOINT RightHandPinky2
                      {
                        OFFSET -2.75653 0 0
                        CHANNELS 3 Zrotation Xrotation Yrotation
                        JOINT RightHandPinky3
                        {
                          OFFSET -1.74189 0 0
                          CHANNELS 3 Zrotation Xrotation Yrotation
                          End Site
                          {
                            OFFSET -1.645 0 0
                          }
                        }
                      }
                    }
                  }
                }
              }
            }
          }
          JOINT LeftShoulder
          {
            OFFSET 3.23403 6.91572 -0.0126821
            CHANNELS 3 Zrotation Xrotation Yrotation
            JOINT LeftArm
            {
              OFFSET 12.8488 -0.0444641 -0.0528339
              CHANNELS 3 Zrotation Xrotation Yrotation
              JOINT LeftForeArm
              {
                OFFSET 26.4942 -0.0237746 -0.09002
                CHANNELS 3 Zrotation Xrotation Yrotation
                JOINT LeftHand
                {
                  OFFSET 25.9989 -0.00653758 -0.026747
                  CHANNELS 3 Zrotation Xrotation Yrotation
                  JOINT LeftHandThumb1
                  {
                    OFFSET 2.48905 0.190105 3.12053
                    CHANNELS 3 Zrotation Xrotation Yrotation
                    JOINT LeftHandThumb2
                    {
                      OFFSET 3.68274 0 0
                      CHANNELS 3 Zrotation Xrotation Yrotation
                      JOINT LeftHandThumb3
                      {
                        OFFSET 2.55832 0 0
                        CHANNELS 3 Zrotation Xrotation Yrotation
                        End Site
                        {
                          OFFSET 2.194 0 0
                        }
                      }
                    }
                  }
                  JOINT LeftInHandIndex
                  {
                    OFFSET 3.22368 0.508421 1.97842
                    CHANNELS 3 Zrotation Xrotation Yrotation
                    JOINT LeftHandIndex1
                    {
                      OFFSET 5.21684 -0.091368 0.999158
                      CHANNELS 3 Zrotation Xrotation Yrotation
                      JOINT LeftHandIndex2
                      {
                        OFFSET 3.61937 0 0
                        CHANNELS 3 Zrotation Xrotation Yrotation
                        JOINT LeftHandIndex3
                        {
                          OFFSET 2.0521 0 0
                          CHANNELS 3 Zrotation Xrotation Yrotation
                          End Site
                          {
                            OFFSET 1.805 0 0
                          }
                        }
                      }
                    }
                  }
                  JOINT LeftInHandMiddle
                  {
                    OFFSET 3.38211 0.517263 0.756737
                    CHANNELS 3 Zrotation Xrotation Yrotation
                    JOINT LeftHandMiddle1
                    {
                      OFFSET 5.17411 -0.084 0.313895
                      CHANNELS 3 Zrotation Xrotation Yrotation
                      JOINT LeftHandMiddle2
                      {
                        OFFSET 3.94947 0 0
                        CHANNELS 3 Zrotation Xrotation Yrotation
                        JOINT LeftHandMiddle3
                        {
                          OFFSET 2.47579 0 0
                          CHANNELS 3 Zrotation Xrotation Yrotation
                          End Site
                          {
                            OFFSET 1.975 0 0
                          }
                        }
                      }
                    }
                  }
                  JOINT LeftInHandRing
                  {
                    OFFSET 3.36516 0.537895 -0.128947
                    CHANNELS 3 Zrotation Xrotation Yrotation
                    JOINT LeftHandRing1
                    {
                      OFFSET 4.63474 -0.022105 -0.478947
                      CHANNELS 3 Zrotation Xrotation Yrotation
                      JOINT LeftHandRing2
                      {
                        OFFSET 3.44238 0 0
                        CHANNELS 3 Zrotation Xrotation Yrotation
                        JOINT LeftHandRing3
                        {
                          OFFSET 2.3881 0 0
                          CHANNELS 3 Zrotation Xrotation Yrotation
                          End Site
                          {
                            OFFSET 1.857 0 0
                          }
                        }
                      }
                    }
                  }
                  JOINT LeftInHandPinky
                  {
                    OFFSET 3.16105 0.469368 -1.20179
                    CHANNELS 3 Zrotation Xrotation Yrotation
                    JOINT LeftHandPinky1
                    {
                      OFFSET 4.14105 -0.022105 -1.09053
                      CHANNELS 3 Zrotation Xrotation Yrotation
                      JOINT LeftHandPinky2
                      {
                        OFFSET 2.75653 0 0
                        CHANNELS 3 Zrotation Xrotation Yrotation
                        JOINT LeftHandPinky3
                        {
                          OFFSET 1.74189 0 0
                          CHANNELS 3 Zrotation Xrotation Yrotation
                          End Site
                          {
                            OFFSET 1.645 0 0
                          }
                        }
                      }
                    }
                  }
                }
              }
            }
          }
        }
      }
    }
  }
}
MOTION
Frames: 3
Frame Time: 0.00833333
3.000249820067299993e+02 5.267556911737333696e-03 2.535471999906710808e-02 4.939974029708364689e-02 -1.980627888732320804e-04 1.283747395517254863e-01 -2.927941832556635315e-01 -5.927239782258396893e-03 -4.364354771108506781e-01 -3.207940496180814588e-04 -3.012790580998448223e-02 -7.151184395538735805e-02 -4.689046367794885706e-02 6.435485094322931920e-02 1.839427005451007013e-01 -2.622924291392706997e-01 -1.293289515815489732e-01 -4.633783905085239185e-01 5.889031105868585553e-02 -8.106515143096387765e-02 1.954660193964989634e-02 -9.621409240560907170e-03 8.746550371005398783e-02 1.896571056616260520e-01 -4.361780409566800437e-02 2.999523084559783254e-02 5.739652622984895564e-02 -9.175956584834674482e-03 1.092376327800734931e-02 1.314846242303705469e-02 -1.407701572443804082e-02 1.942941803940086490e-02 1.877749217373716681e-02 -2.429916917497570820e-03 5.449618402854638360e-03 -9.083713308332059741e-03 -1.502366139956066039e-03 2.039415549971003785e-03 -1.013780518706295687e-02 -5.031619454969453453e-02 -7.645098260062255235e-02 -1.683627531265266264e-01 -2.983590335827154133e-02 -3.487031942267257434e-01 4.391643800258339114e-01 -2.286790523283532273e-01 7.068846880078182293e-01 3.094592944104320731e-01 -2.437357803814906632e+00 -1.537448936242335473e-01 -1.842178939214801359e+00 1.986248924230545054e-01 -2.953003571621753975e-01 1.410211364893774189e-01 0.000000000000000000e+00 0.000000000000000000e+00 0.000000000000000000e+00 1.821057595558119181e-15 3.990086001047921395e-17 0.000000000000000000e+00 -1.117413406539750707e-15 -1.414601054160187317e-16 0.000000000000000000e+00 7.196912914327576047e-16 -8.737161524501475686e-16 -9.605940074313791234e-16 0.000000000000000000e+00 0.000000000000000000e+00 0.000000000000000000e+00 0.000000000000000000e+00 3.262663286212975256e-15 9.568355740559857658e-15 0.000000000000000000e+00 -1.606455937831961522e-14 -7.223592445497365141e-14 7.196912914327576047e-16 -8.737161524501475686e-16 -9.605940074313791234e-16 0.000000000000000000e+00 3.044271718913816384e-15 6.435035426581557817e-15 0.000000000000000000e+00 4.270671515316037555e-15 7.472860268514511470e-15 0.000000000000000000e+00 -1.166069871313179650e-14 -4.088298019273173688e-14 7.196912914327576047e-16 -8.737161524501475686e-16 -9.605940074313791234e-16 0.000000000000000000e+00 0.000000000000000000e+00 0.000000000000000000e+00 0.000000000000000000e+00 -1.909954320173486995e-16 5.978675830328162503e-15 0.000000000000000000e+00 2.358072135655494588e-15 -2.109857293761614543e-14 7.196912914327576047e-16 -8.737161524501475686e-16 -9.605940074313791234e-16 0.000000000000000000e+00 0.000000000000000000e+00 0.000000000000000000e+00 0.000000000000000000e+00 1.642051569414788707e-15 1.311156096736901027e-14 0.000000000000000000e+00 3.107503159428981388e-16 1.043791172819075513e-14 4.794796372424096204e-02 -1.330089292833197198e-02 1.000226757249468579e-01 2.066137421405593866e-01 2.467093735012964861e-01 -5.350865431971738584e-01 9.900930199295605583e-01 -1.806425181601846397e+00 1.208420406760498000e+00 -2.515121082389770724e-01 3.791639016220542113e-01 8.173704038439254249e-02 0.000000000000000000e+00 0.000000000000000000e+00 0.000000000000000000e+00 3.656947861225321850e-15 6.312801288443251745e-15 0.000000000000000000e+00 -3.193251744704488023e-16 -6.692390253234891600e-17 0.000000000000000000e+00 -1.585657999864991366e-15 -5.544112116727330551e-16 -4.323461776616259761e-16 0.000000000000000000e+00 0.000000000000000000e+00 0.000000000000000000e+00 0.000000000000000000e+00 2.917614956367438303e-15 -2.716594438661508366e-15 0.000000000000000000e+00 -3.375979738184985015e-15 1.984713658763314741e-14 -1.585657999864991366e-15 -5.544112116727330551e-16 -4.323461776616259761e-16 0.000000000000000000e+00 5.518397240391165752e-15 2.653624195422423922e-15 0.000000000000000000e+00 5.761499980416550257e-17 1.056896929565178012e-14 0.000000000000000000e+00 -2.749568204594601773e-15 1.680819341909064223e-14 -1.585657999864991366e-15 -5.544112116727330551e-16 -4.323461776616259761e-16 0.000000000000000000e+00 0.000000000000000000e+00 0.000000000000000000e+00 0.000000000000000000e+00 6.482138226705298741e-16 3.152912179930194282e-15 0.000000000000000000e+00 -1.689953978639705266e-15 7.749710479051503794e-15 -1.585657999864991366e-15 -5.544112116727330551e-16 -4.323461776616259761e-16 0.000000000000000000e+00 0.000000000000000000e+00 0.000000000000000000e+00 0.000000000000000000e+00 -7.856363486821811833e-16 -7.587169949101781472e-15 0.000000000000000000e+00 -2.555319642459224906e-15 2.295690522524535015e-14
3.000207825459032733e+02 3.591365370887658701e-03 1.959173620697459914e-02 2.851899510654546527e-02 -1.215343002532618365e-02 5.236094668108589451e-02 -1.766766882497014801e-01 -8.801106512112100502e-03 -2.787999050329071915e-01 9.361636261670405832e-04 -1.456278368057186030e-02 -7.559758707962989377e-02 -4.892786679704486802e-02 5.832721699186969866e-02 1.809144556539128978e-01 -1.952982264343471885e-01 -7.620016780411095758e-02 -3.315169253752957568e-01 7.449845027938395425e-02 -8.059130594975859319e-02 6.160328924757251315e-03 -1.679177562083319919e-02 8.823855894411003487e-02 1.657936835156102739e-01 -6.681581556717071380e-02 3.579458308956212642e-02 1.189225721053553397e-01 -1.398952870978526983e-02 1.353576734198101185e-02 2.822560713086685880e-02 -2.220678265111845212e-02 2.248011518574769690e-02 4.348282971131144092e-02 -2.925049772806656437e-04 4.325527971565179021e-03 -1.006056043990790488e-02 1.202954606616388200e-03 2.113761416095059908e-03 -1.356876036106127031e-02 -1.675239349972397832e-02 -9.098465277246972627e-02 -1.802390564819141006e-01 -2.151883317951073030e-02 -3.268365845053901042e-01 4.103698247156351009e-01 -2.612249818593084250e-01 6.292755022695541989e-01 2.692832578534163912e-01 -2.331080907376933187e+00 -1.219069714033761548e-01 -1.979210045578151833e+00 2.728367688765594434e-01 -4.116213975127311908e-01 3.800418365850576907e-01 0.000000000000000000e+00 0.000000000000000000e+00 0.000000000000000000e+00 4.383977161244986999e-15 -6.392908396617794144e-17 0.000000000000000000e+00 1.051897554330295194e-15 -4.789968874656090780e-16 0.000000000000000000e+00 4.212685986222770059e-15 -7.710366029420808286e-17 -8.171075493142113908e-16 0.000000000000000000e+00 0.000000000000000000e+00 0.000000000000000000e+00 0.000000000000000000e+00 3.903396051217981718e-15 1.670970257757013059e-14 0.000000000000000000e+00 -1.712430850077814922e-14 -6.477669475396114807e-14 4.212685986222770059e-15 -7.710366029420808286e-17 -8.171075493142113908e-16 0.000000000000000000e+00 3.619786968729049776e-15 4.832325869718187456e-15 0.000000000000000000e+00 6.138841478129610702e-15 9.207546301392013871e-15 0.000000000000000000e+00 -9.106062954230350778e-15 -3.456971145335138834e-14 4.212685986222770059e-15 -7.710366029420808286e-17 -8.171075493142113908e-16 0.000000000000000000e+00 0.000000000000000000e+00 0.000000000000000000e+00 0.000000000000000000e+00 4.021849237954588595e-16 7.857830258281242562e-15 0.000000000000000000e+00 -1.262056035158499082e-15 -2.328836156689184479e-14 4.212685986222770059e-15 -7.710366029420808286e-17 -8.171075493142113908e-16 0.000000000000000000e+00 0.000000000000000000e+00 0.000000000000000000e+00 0.000000000000000000e+00 -1.153455239444029452e-15 1.410412761293530204e-14 0.000000000000000000e+00 3.422152514335220154e-16 7.791203941469963559e-15 3.278575656239333946e-02 -1.509886968919024915e-02 1.005527699781704892e-01 -9.065303198167007359e-03 8.061151079502026917e-02 -2.353392308086454943e-01 8.009393278620726697e-01 -1.572644434050579632e+00 9.800894374223536598e-01 -2.836276269839911879e-01 3.081951967304407680e-01 1.945256784304071757e-02 0.000000000000000000e+00 0.000000000000000000e+00 0.000000000000000000e+00 1.959649777646470805e-15 5.718683848123305592e-15 0.000000000000000000e+00 -1.875973327448349119e-15 -3.046920352162462741e-15 0.000000000000000000e+00 -1.850136558720671880e-15 -1.398157828385247698e-15 -9.189742875543951530e-16 0.000000000000000000e+00 0.000000000000000000e+00 0.000000000000000000e+00 0.000000000000000000e+00 3.991517734380883263e-15 -6.117925648218641234e-15 0.000000000000000000e+00 -2.980684790331609983e-15 1.668164285029401212e-14 -1.850136558720671880e-15 -1.398157828385247698e-15 -9.189742875543951530e-16 0.000000000000000000e+00 4.441731155387460359e-15 2.718395915753848992e-15 0.000000000000000000e+00 -5.611918434402672917e-16 5.586637294142400212e-15 0.000000000000000000e+00 -8.074638934144730014e-16 1.428136013612959417e-14 -1.850136558720671880e-15 -1.398157828385247698e-15 -9.189742875543951530e-16 0.000000000000000000e+00 0.000000000000000000e+00 0.000000000000000000e+00 0.000000000000000000e+00 1.304979149247661690e-15 2.809720788760478720e-15 0.000000000000000000e+00 -3.067518105945224815e-16 5.918738459930610110e-15 -1.850136558720671880e-15 -1.398157828385247698e-15 -9.189742875543951530e-16 0.000000000000000000e+00 0.000000000000000000e+00 0.000000000000000000e+00 0.000000000000000000e+00 1.986319261357496286e-16 -5.853463416826445353e-15 0.000000000000000000e+00 -5.047257338326102026e-16 1.598228754169277881e-14
3.000119760393813522e+02 1.090690479674162215e-03 7.362222772873912302e-03 6.444653225952323532e-03 -9.583158366421392835e-03 5.659851218833758003e-03 -7.947513429989513933e-02 -9.283113837861322812e-03 -1.622049336965852573e-01 -1.495266879348928612e-03 2.985963352859554842e-03 -5.665373024644849986e-02 -4.702072078862636756e-02 4.360267434294141237e-02 1.526415164402516456e-01 -1.276148501342765362e-01 -3.097474897287319506e-02 -2.096496913379480020e-01 8.178097466670757043e-02 -6.973037467210066453e-02 -2.423565253161941851e-04 -2.404126668075774048e-02 7.831120226384628846e-02 1.154814346194544122e-01 -7.303949156716527114e-02 3.837477128493443218e-02 1.483331396542701686e-01 -1.512372701768939683e-02 1.446429589668625851e-02 3.564038503764187932e-02 -2.430934031500444140e-02 2.298403946531718534e-02 5.595709964010601306e-02 2.075471873643241257e-03 3.104521410116995329e-03 -9.855195620055327149e-03 3.926300075976787117e-03 2.407503897180935954e-03 -1.506357970809698438e-02 2.248614377193428396e-02 -9.469442807808133022e-02 -1.721424059482935809e-01 -6.074132402311825663e-03 -2.736524120827595885e-01 3.589315528031025715e-01 -3.133313035339925223e-01 5.477887394230531726e-01 2.489321185661088065e-01 -1.988355704414081160e+00 -1.916968182141904897e-01 -1.824028546937826567e+00 2.679510602427817023e-01 -4.197094498422603293e-01 4.455582475605739945e-01 0.000000000000000000e+00 0.000000000000000000e+00 0.000000000000000000e+00 4.964494023978733967e-15 -7.211228410527162931e-16 0.000000000000000000e+00 1.063723655951414165e-15 -9.691437174101056785e-16 0.000000000000000000e+00 5.741403050889114885e-15 5.418074503749829487e-16 -4.530809803903856465e-16 0.000000000000000000e+00 0.000000000000000000e+00 0.000000000000000000e+00 0.000000000000000000e+00 4.172814977825769132e-15 1.988526278977625725e-14 0.000000000000000000e+00 -1.788257367718843261e-14 -6.539068717927148901e-14 5.741403050889114885e-15 5.418074503749829487e-16 -4.530809803903856465e-16 0.000000000000000000e+00 3.634676118716529653e-15 3.710229158980323616e-15 0.000000000000000000e+00 7.603821515804228994e-15 1.016485189401099635e-14 0.000000000000000000e+00 -8.482943447235658544e-15 -3.421025412403473810e-14 5.741403050889114885e-15 5.418074503749829487e-16 -4.530809803903856465e-16 0.000000000000000000e+00 0.000000000000000000e+00 0.000000000000000000e+00 0.000000000000000000e+00 5.297295707746171438e-16 8.026427118576673527e-15 0.000000000000000000e+00 -4.291876600188370969e-15 -2.751967423741027158e-14 5.741403050889114885e-15 5.418074503749829487e-16 -4.530809803903856465e-16 0.000000000000000000e+00 0.000000000000000000e+00 0.000000000000000000e+00 0.000000000000000000e+00 -2.049638089940989517e-15 1.432854682282146542e-14 0.000000000000000000e+00 -1.415391485584719913e-15 -2.687667538904695226e-15 2.342526103490103796e-03 -1.722429773349028409e-03 1.320410415723373421e-01 -1.156752518443611710e-01 -1.657699359318613036e-02 -6.251298835863856873e-02 6.763741308329235258e-01 -1.312265292983946230e+00 8.150378419910020433e-01 -2.937101533483996163e-01 6.279432844125092117e-02 -8.726389893836282441e-02 0.000000000000000000e+00 0.000000000000000000e+00 0.000000000000000000e+00 1.511010458781886537e-15 6.050584820203917900e-15 0.000000000000000000e+00 -1.312052250723109822e-15 -4.222056395585596375e-15 0.000000000000000000e+00 -2.249133737478541053e-15 -9.249393827591827261e-16 -1.025245823266344456e-15 0.000000000000000000e+00 0.000000000000000000e+00 0.000000000000000000e+00 0.000000000000000000e+00 4.731407435240524252e-15 -8.348277060419506545e-15 0.000000000000000000e+00 -2.731295662775892289e-15 1.496766361737544643e-14 -2.249133737478541053e-15 -9.249393827591827261e-16 -1.025245823266344456e-15 0.000000000000000000e+00 4.109464967857823970e-15 2.502703696122097393e-15 0.000000000000000000e+00 -1.134448649935594606e-15 3.063950760364827147e-15 0.000000000000000000e+00 5.629349082117914257e-16 1.318694560773017525e-14 -2.249133737478541053e-15 -9.249393827591827261e-16 -1.025245823266344456e-15 0.000000000000000000e+00 0.000000000000000000e+00 0.000000000000000000e+00 0.000000000000000000e+00 1.217408704690014969e-15 2.468744293732576995e-15 0.000000000000000000e+00 2.865716512388625056e-16 7.083418972604159638e-15 -2.249133737478541053e-15 -9.249393827591827261e-16 -1.025245823266344456e-15 0.000000000000000000e+00 0.000000000000000000e+00 0.000000000000000000e+00 0.000000000000000000e+00 7.530945734742783628e-16 -5.038077681443058952e-15 0.000000000000000000e+00 4.451881533589306661e-16 1.114907170077211815e-14
